<svg width="42" height="44" viewBox="0 0 42 44" fill="none" xmlns="http://www.w3.org/2000/svg">
<g clip-path="url(#clip0_604_20407)" filter="url(#filter0_d_604_20407)">
<path d="M33.3165 13.6891V12.305C33.3165 8.99244 32.1443 5.91429 30.0191 3.63025C27.8409 1.28571 24.8459 0 21.5787 0H20.4367C17.1695 0 14.1745 1.28571 11.9964 3.63025C9.87115 5.91429 8.69888 8.99244 8.69888 12.305V13.6891C6.11989 13.863 4.07031 16.0109 4.07031 18.6353V20.7983C4.07031 23.5286 6.29384 25.7521 9.02409 25.7521H11.8149C12.314 25.7521 12.7224 25.3437 12.7224 24.8445V14.5815C12.7224 14.0824 12.314 13.674 11.8149 13.674H10.514V12.305C10.514 6.32269 14.7796 1.81513 20.4291 1.81513H21.5712C27.2283 1.81513 31.4863 6.32269 31.4863 12.305V13.674H30.1854C29.6863 13.674 29.2779 14.0824 29.2779 14.5815V24.837C29.2779 25.3361 29.6863 25.7445 30.1854 25.7445H31.456C31.0854 30.479 27.8258 31.5756 26.3132 31.8252C25.8972 30.5471 24.6947 29.6244 23.2804 29.6244H21.0115C19.2569 29.6244 17.8275 31.0538 17.8275 32.8084C17.8275 34.563 19.2569 36 21.0115 36H23.288C24.7552 36 25.988 35.0017 26.3585 33.6555C27.0997 33.5496 28.272 33.2849 29.4367 32.6042C31.0779 31.6437 33.0216 29.6849 33.2787 25.737C35.8728 25.5782 37.93 23.4227 37.93 20.7908V18.6277C37.9375 16.0109 35.8955 13.8555 33.3165 13.6891ZM10.9224 23.9294H9.03922C7.30729 23.9294 5.90056 22.5227 5.90056 20.7908V18.6277C5.90056 16.8958 7.30729 15.4891 9.03922 15.4891H10.9224V23.9294ZM23.288 34.1849H21.0115C20.2552 34.1849 19.6426 33.5723 19.6426 32.816C19.6426 32.0597 20.2552 31.4471 21.0115 31.4471H23.288C24.0443 31.4471 24.6569 32.0597 24.6569 32.816C24.6569 33.5723 24.0443 34.1849 23.288 34.1849ZM36.1224 20.7908C36.1224 22.5227 34.7157 23.9294 32.9838 23.9294H31.1006V15.4891H32.9838C34.7157 15.4891 36.1224 16.8958 36.1224 18.6277V20.7908Z" fill="#00B307"/>
</g>
<defs>
<filter id="filter0_d_604_20407" x="-1" y="0" width="44" height="44" filterUnits="userSpaceOnUse" color-interpolation-filters="sRGB">
<feFlood flood-opacity="0" result="BackgroundImageFix"/>
<feColorMatrix in="SourceAlpha" type="matrix" values="0 0 0 0 0 0 0 0 0 0 0 0 0 0 0 0 0 0 127 0" result="hardAlpha"/>
<feOffset dy="4"/>
<feGaussianBlur stdDeviation="2"/>
<feComposite in2="hardAlpha" operator="out"/>
<feColorMatrix type="matrix" values="0 0 0 0 0 0 0 0 0 0 0 0 0 0 0 0 0 0 0.25 0"/>
<feBlend mode="normal" in2="BackgroundImageFix" result="effect1_dropShadow_604_20407"/>
<feBlend mode="normal" in="SourceGraphic" in2="effect1_dropShadow_604_20407" result="shape"/>
</filter>
<clipPath id="clip0_604_20407">
<rect width="36" height="36" fill="white" transform="translate(3)"/>
</clipPath>
</defs>
</svg>
