<svg width="104" height="40" viewBox="0 0 104 40" fill="none" xmlns="http://www.w3.org/2000/svg">
<g filter="url(#filter0_d_542_67202)">
<path fill-rule="evenodd" clip-rule="evenodd" d="M5.83049 25.5529L13.5362 25.4493L13.5582 25.4044L5.25467 24.0751L5.2123 23.9148L12.1747 23.8153C12.1747 23.8153 12.1171 23.6769 11.9394 23.3339L4.77584 22.193L4.75133 22.0327L11.4534 21.9362L11.3488 21.4686L4.55276 20.4537L4.5451 20.2562L11.1472 20.1612L11.0961 19.6748L4.49609 18.59L4.50732 18.4287L11.0981 18.3337C11.0639 18.1454 11.1191 17.7645 11.1191 17.7645L4.60074 16.7722L4.62984 16.6098L11.2161 16.5333C11.215 16.4393 11.2533 16.0937 11.2533 16.0937L4.84271 14.9426L4.87181 14.7808L11.5203 14.6848C11.5203 14.6848 11.5637 14.3203 11.6398 14.1309L5.2317 13.1529L5.27866 12.9905L11.9409 12.8945C11.9409 12.8945 12.0793 12.5086 12.1559 12.3662L5.7774 11.4039L5.82437 11.26L12.599 11.1625C12.599 11.1625 12.795 10.7546 12.8404 10.6443L6.51096 9.66474L6.5763 9.52027L13.4714 9.42123C13.4714 9.42123 13.6562 9.05828 13.8256 8.80457L7.50283 7.82547L7.56766 7.69887L14.6587 7.61465C14.6587 7.61465 14.8721 7.27874 15.0585 7.10365L8.66672 6.14599L8.78567 6.00101L16.0355 5.89687C16.0355 5.89687 16.3183 5.58854 16.5205 5.42876L10.2359 4.46957L10.337 4.32459L17.7242 4.21229L18.2071 3.78399L12.4826 2.5471L12.4688 2.54863C14.9257 0.991663 17.9748 0.0508471 21.6488 0.00184092C28.4785 -0.0905561 34.2454 3.29036 34.4378 11.2288L25.5585 11.3483C25.2645 8.53402 23.5865 7.57482 21.196 7.60698C16.0309 7.67641 13.8001 13.2141 13.8706 18.4654C13.9191 22.0505 15.4878 24.4207 19.2868 24.3686C21.8055 24.3349 23.9276 23.4105 24.8337 20.9219L20.565 20.9785L21.8433 14.4291L34.3077 14.2611L31.0334 31.084L25.0996 31.1636L25.3161 28.2156L25.2298 28.1309C23.3022 30.8038 20.2858 31.9544 17.0417 31.9983C10.7005 32.084 7.4186 28.9471 5.83968 25.5785L5.83049 25.5529ZM51.5706 14.4944C50.6609 13.9574 49.5338 13.5873 48.0825 13.6041C46.2754 13.6245 44.3126 14.3591 44.3391 16.6313C44.3759 19.8345 50.8922 19.7871 50.9499 24.7969C50.983 27.6714 49.0218 30.9528 44.4223 31.0054C42.2048 31.0314 40.6111 30.5567 39.071 29.9717L39.9184 27.4433C41.0486 28.1421 42.6152 28.6169 43.9568 28.602C46.8589 28.5684 48.0702 26.7475 48.0513 25.1594C48.0069 21.2721 41.4988 22.0316 41.4376 16.7206C41.3972 13.2432 44.5505 11.2355 47.6991 11.1992C49.2867 11.1809 50.8508 11.4642 52.3088 12.0497L51.5706 14.4944ZM62.5138 30.2218C61.1758 30.5659 59.7827 30.8283 58.3871 30.8441C54.9924 30.8829 51.9371 29.55 51.88 24.6218C51.8355 20.7616 54.4946 16.2678 59.4228 16.2106C62.79 16.1718 64.7022 18.176 64.741 21.489C64.7512 22.4191 64.6512 23.2149 64.5235 24.0373L54.6947 24.1512C54.6437 24.4408 54.6196 24.7346 54.6228 25.0287C54.6565 27.9578 56.4733 28.7853 58.9649 28.7567C60.2513 28.7419 61.6439 28.3979 62.8972 27.8624L62.5138 30.2218ZM62.0921 22.1491C62.1432 21.7381 62.1661 21.4094 62.1621 21.0801C62.1442 19.4379 61.1171 18.2725 59.1732 18.2944C57.0654 18.3184 55.4712 20.172 54.9479 22.2318L62.0921 22.1491ZM66.4042 18.5936C66.5078 18.0172 66.6635 17.2765 66.763 16.4541L69.173 16.4261L68.76 18.6487H68.8146C69.6202 17.3245 71.1118 16.0754 73.5483 16.0473C73.7944 16.0442 74.2334 16.0942 74.7286 16.2806L74.1793 18.5588C73.6846 18.3735 73.2732 18.2954 73.0818 18.2985C69.9061 18.3342 68.3848 21.8019 68.0489 23.5309L66.6768 30.4194L64.1034 30.4495L66.4042 18.5936ZM75.5234 16.352L78.0967 16.3229L75.3008 30.3193L72.7275 30.3494L75.5234 16.352ZM78.9099 13.1922L76.0073 13.2253L76.5755 10.3161L79.4781 10.2829L78.9099 13.1922ZM88.3262 29.9227C86.9883 30.2667 85.5952 30.5291 84.1995 30.5449C80.8048 30.5848 77.7496 29.2509 77.6929 24.3227C77.648 20.4624 80.3071 15.9687 85.2353 15.9115C88.6024 15.8732 90.5147 17.8779 90.5535 21.1899C90.5637 22.121 90.4636 22.9158 90.336 23.7392L80.5072 23.852C80.4562 24.1417 80.4321 24.4354 80.4352 24.7295C80.4689 27.6587 82.2857 28.4862 84.7774 28.4576C86.0638 28.4438 87.4564 28.0987 88.7096 27.5642L88.3262 29.9227ZM87.9046 21.8499C87.9556 21.439 87.9786 21.1102 87.9745 20.781C87.9556 19.1388 86.9296 17.9733 84.9857 17.9953C82.8779 18.0203 81.2837 19.8728 80.7604 21.9326L87.9046 21.8499Z" fill="#CCCCCC"/>
<path fill-rule="evenodd" clip-rule="evenodd" d="M99.2566 18.5424C98.5409 18.1943 97.4143 17.8512 96.4561 17.8625C95.3335 17.8752 93.8588 18.1933 93.8746 19.5904C93.9027 21.9713 98.6675 22.0259 98.7124 25.9138C98.7512 29.2819 95.6694 30.4121 93.48 30.4371C91.2624 30.4632 90.437 30.1712 89.3931 29.8271L89.8596 27.6045C90.8775 28.0032 91.9506 28.3743 93.0721 28.361C94.4688 28.3452 95.9956 27.752 95.9762 26.1644C95.9492 23.7825 91.1813 23.4813 91.1404 19.9498C91.1067 16.9926 94.0497 15.8088 96.3499 15.7822C97.5812 15.768 98.8446 16.0543 99.9998 16.5066L99.2566 18.5424Z" fill="#CCCCCC"/>
</g>
<defs>
<filter id="filter0_d_542_67202" x="0.496094" y="0" width="103.504" height="40" filterUnits="userSpaceOnUse" color-interpolation-filters="sRGB">
<feFlood flood-opacity="0" result="BackgroundImageFix"/>
<feColorMatrix in="SourceAlpha" type="matrix" values="0 0 0 0 0 0 0 0 0 0 0 0 0 0 0 0 0 0 127 0" result="hardAlpha"/>
<feOffset dy="4"/>
<feGaussianBlur stdDeviation="2"/>
<feComposite in2="hardAlpha" operator="out"/>
<feColorMatrix type="matrix" values="0 0 0 0 0 0 0 0 0 0 0 0 0 0 0 0 0 0 0.25 0"/>
<feBlend mode="normal" in2="BackgroundImageFix" result="effect1_dropShadow_542_67202"/>
<feBlend mode="normal" in="SourceGraphic" in2="effect1_dropShadow_542_67202" result="shape"/>
</filter>
</defs>
</svg>
