<svg width="40" height="19" viewBox="0 0 40 19" fill="none" xmlns="http://www.w3.org/2000/svg">
<path d="M15.1177 18.1765L39.7059 10.7354V14.2942C39.7059 16.4383 37.9677 18.1765 35.8236 18.1765H15.1177Z" fill="#FD6020"/>
<path fill-rule="evenodd" clip-rule="evenodd" d="M35.0387 0.261116C36.3914 0.261116 37.1354 0.886876 37.1354 2.06887C37.203 2.97275 36.5943 3.73757 35.7827 3.87662L37.6089 6.4492H36.1885L34.6328 3.94615H34.4976V6.4492H33.3477V0.261116H35.0387ZM34.4979 3.11149H34.8361C35.5801 3.11149 35.9183 2.76384 35.9183 2.13808C35.9183 1.58185 35.5801 1.2342 34.8361 1.2342H34.4979V3.11149ZM29.3573 6.4492H32.6039V5.40626H30.5072V3.73757H32.5363V2.69463H30.5072V1.30405H32.6039V0.261116H29.3573V6.4492ZM25.9758 4.43285L24.4202 0.261116H23.2027L25.7053 6.58825H26.314L28.8165 0.261116H27.5991L25.9758 4.43285ZM12.245 3.39025C12.245 5.12847 13.5978 6.58858 15.2887 6.58858C15.8298 6.58858 16.3032 6.44952 16.7767 6.24094V4.85036C16.4385 5.26753 15.965 5.54565 15.424 5.54565C14.3418 5.54565 13.4625 4.7113 13.4625 3.59883V3.45978C13.3949 2.34731 14.2741 1.37391 15.3563 1.30438C15.8974 1.30438 16.4385 1.58249 16.7767 1.99967V0.609089C16.3709 0.330973 15.8298 0.261444 15.3563 0.261444C13.5978 0.122386 12.245 1.58249 12.245 3.39025ZM10.1486 2.62511C9.47223 2.347 9.26932 2.20794 9.26932 1.86029C9.33696 1.44312 9.67514 1.09547 10.081 1.165C10.4191 1.165 10.7573 1.37359 11.0279 1.65171L11.6366 0.817358C11.1631 0.400184 10.5544 0.122068 9.94569 0.122068C8.99877 0.0525387 8.18713 0.817358 8.11949 1.79076V1.86029C8.11949 2.69464 8.45768 3.18134 9.53987 3.52899C9.81041 3.59852 10.081 3.73758 10.3515 3.87663C10.5544 4.01569 10.6897 4.22428 10.6897 4.50239C10.6897 4.9891 10.2839 5.40627 9.87805 5.40627H9.81041C9.26932 5.40627 8.79586 5.05863 8.59295 4.57192L7.84895 5.33674C8.25477 6.10156 9.06641 6.51874 9.87805 6.51874C10.9602 6.58826 11.8395 5.75392 11.9072 4.64145V4.43287C11.8395 3.59852 11.5013 3.18134 10.1486 2.62511ZM6.22561 6.4492H7.37544V0.261116H6.22561V6.4492ZM0.882324 0.261116H2.57324H2.91143C4.53471 0.330645 5.8198 1.72122 5.75217 3.38992C5.75217 4.2938 5.34635 5.12815 4.66998 5.75391C4.06125 6.24061 3.31725 6.51873 2.57324 6.4492H0.882324V0.261116ZM2.37058 5.40597C2.91168 5.4755 3.52041 5.26692 3.92623 4.91927C4.33205 4.5021 4.53496 3.94586 4.53496 3.3201C4.53496 2.76387 4.33205 2.20764 3.92623 1.79047C3.52041 1.44282 2.91168 1.23423 2.37058 1.30376H2.0324V5.40597H2.37058Z" fill="black"/>
<path fill-rule="evenodd" clip-rule="evenodd" d="M20.2263 0.117676C18.5354 0.117676 17.115 1.50826 17.115 3.31601C17.115 5.05423 18.4677 6.51434 20.2263 6.58387C21.9848 6.6534 23.3376 5.19329 23.4052 3.38554C23.3376 1.57778 21.9848 0.117676 20.2263 0.117676V0.117676Z" fill="#FD6020"/>
</svg>
