<svg width="31" height="19" viewBox="0 0 31 19" fill="none" xmlns="http://www.w3.org/2000/svg">
<path fill-rule="evenodd" clip-rule="evenodd" d="M21.5577 18.5097C26.5141 18.5097 30.5321 14.5395 30.5321 9.64206C30.5321 4.74459 26.5141 0.774414 21.5577 0.774414C19.3364 0.774414 17.3036 1.57179 15.7365 2.89266C14.1695 1.57188 12.1368 0.774572 9.9156 0.774572C4.95916 0.774572 0.941162 4.74475 0.941162 9.64222C0.941162 14.5397 4.95916 18.5099 9.9156 18.5099C12.1369 18.5099 14.1696 17.7125 15.7367 16.3916C17.3038 17.7124 19.3365 18.5097 21.5577 18.5097Z" fill="#ED0006"/>
<path fill-rule="evenodd" clip-rule="evenodd" d="M15.7368 16.3912C17.6663 14.7647 18.8898 12.3446 18.8898 9.64206C18.8898 6.93957 17.6663 4.51943 15.7368 2.89295C17.304 1.57191 19.3369 0.774414 21.5583 0.774414C26.5147 0.774414 30.5327 4.74459 30.5327 9.64206C30.5327 14.5395 26.5147 18.5097 21.5583 18.5097C19.3369 18.5097 17.304 17.7122 15.7368 16.3912Z" fill="#F9A000"/>
<path fill-rule="evenodd" clip-rule="evenodd" d="M15.7366 16.3918C17.6662 14.7653 18.8899 12.3451 18.8899 9.64245C18.8899 6.93981 17.6662 4.51956 15.7366 2.89307C13.8069 4.51956 12.5833 6.93981 12.5833 9.64245C12.5833 12.3451 13.8069 14.7653 15.7366 16.3918Z" fill="#FF5E00"/>
</svg>
