<svg width="32" height="12" viewBox="0 0 32 12" fill="none" xmlns="http://www.w3.org/2000/svg">
<path fill-rule="evenodd" clip-rule="evenodd" d="M7.91175 10.9931H5.2462L3.24737 3.14314C3.15249 2.78204 2.95105 2.46281 2.65474 2.31235C1.91524 1.93425 1.10037 1.63333 0.211426 1.48157V1.17934H4.50541C5.09804 1.17934 5.54252 1.63333 5.6166 2.16059L6.65371 7.82302L9.31795 1.17934H11.9094L7.91175 10.9931ZM13.3908 10.9931H10.8734L12.9463 1.17934H15.4637L13.3908 10.9931ZM18.7206 3.89817C18.7946 3.3696 19.2391 3.06738 19.7577 3.06738C20.5725 2.9915 21.4602 3.14326 22.201 3.52006L22.6455 1.40711C21.9047 1.10489 21.0898 0.953125 20.3503 0.953125C17.907 0.953125 16.1291 2.31248 16.1291 4.19908C16.1291 5.63431 17.3884 6.38791 18.2774 6.8419C19.2391 7.29458 19.6095 7.5968 19.5354 8.04948C19.5354 8.7285 18.7946 9.03073 18.0552 9.03073C17.1662 9.03073 16.2773 8.80439 15.4637 8.42628L15.0192 10.5405C15.9082 10.9173 16.8699 11.0691 17.7588 11.0691C20.4985 11.1437 22.201 9.78563 22.201 7.74726C22.201 5.18032 18.7206 5.02987 18.7206 3.89817ZM31.0117 10.9931L29.0128 1.17934H26.8658C26.4214 1.17934 25.9769 1.48157 25.8287 1.93425L22.1274 10.9931H24.7189L25.2361 9.55917H28.4202L28.7165 10.9931H31.0117ZM27.2357 3.82255L27.9752 7.52119H25.9023L27.2357 3.82255Z" fill="#172B85"/>
</svg>
